PathFileType	4	(X/Y/Z)	OpenSim_Sub04_CSStiffKnee_Gyro.trc
DataRate	CameraRate	NumFrames	NumMarkers	Units	OrigDataRate	OrigDataStartFrame	OrigNumFrames
100	100	20	8	m	100	927	7413
Frame#	Time	torso_imu_offset_imu	pelvis_imu_offset_imu	tibia_r_imu_offset_imu	femur_r_imu_offset_imu	tibia_l_imu_offset_imu	femur_l_imu_offset_imu	toes_r_imu_offset_imu	toes_l_imu_offset_imu
				X1	Y1	Z1	X2	Y2	Z2	X3	Y3	Z3	X4	Y4	Z4	X5	Y5	Z5	X6	Y6	Z6	X7	Y7	Z7	X8		Y8	Z8	

927	9.26000000	0.72309367	0.16068351	-0.04157537	-1.03389134	-0.56501466	0.27037015	0.43385391	-0.64822753	-2.82156716	1.09994190	0.75149351	1.62179661	-0.00661209	-0.70404147	1.67928854	-1.76772196	-0.20129232	-0.37780697	-0.34495436	-4.16098487	-0.71462985	0.09496082	0.08313751	0.11933047
928	9.27000000	0.80543660	0.13934017	-0.11704577	-1.08845367	-0.42479952	0.11034367	0.38590830	-0.75254954	-2.94256281	1.54745876	0.87577895	2.10946134	0.14825455	-0.12507927	0.66712278	-1.88760092	-0.82956058	0.38729364	-0.62091227	-4.82095697	-0.97580358	0.12821326	-0.00663921	-0.01098416
929	9.28000000	0.84056561	0.12619222	-0.18441376	-1.05864582	-0.33870461	-0.10150533	0.39523788	-0.88724990	-3.02380382	1.78331687	1.05222897	2.47720325	0.05573132	-0.40300381	0.58235179	-1.12170024	-1.73801197	1.23241918	-0.93353512	-5.31585817	-1.27738036	-0.06242840	-0.01891615	0.00806537
930	9.29000000	0.85492726	0.11439953	-0.23991330	-0.92343871	-0.29999512	-0.32606841	0.49394409	-1.02393029	-3.10725892	1.64365355	1.27375122	2.75756519	-0.19235930	-0.42883628	0.67991414	0.24066775	-1.69307332	1.54781133	-0.81613951	-5.24254672	-1.63146042	0.20606566	-0.06552355	-0.14799623
931	9.30000000	0.84564529	0.09503161	-0.29906216	-0.72166970	-0.27927876	-0.51652318	0.55125372	-1.13454474	-3.14121770	1.19885509	1.44890437	2.94478726	0.01342678	-0.34847389	0.76200079	0.91196351	-0.58190299	1.10581688	-0.52102951	-5.12324868	-1.91954708	0.29605692	-0.05196717	-0.24654531
932	9.31000000	0.80152924	0.09130310	-0.36694271	-0.51037567	-0.24234342	-0.63879338	0.47859951	-1.16388494	-3.04329555	0.59617279	1.52711970	3.06459988	0.20812735	-0.47691058	0.84693532	0.59021605	0.29032728	0.61588958	-0.39210776	-4.65847961	-1.96502804	0.33379088	-0.07694372	-0.23736830
933	9.32000000	0.73443430	0.09921583	-0.43682834	-0.30878520	-0.16254137	-0.66618661	0.28330277	-1.05156740	-2.77471158	0.01695565	1.51977529	3.11242462	0.06763192	-0.35142735	0.71332517	0.14637255	0.56847321	0.52022778	-0.00221794	-4.12535804	-1.93891583	0.25691574	-0.09310738	-0.15331481
934	9.33000000	0.63436336	0.09208773	-0.48849485	-0.12629253	-0.02992885	-0.63261112	0.06601655	-0.91973060	-2.39538160	-0.46663999	1.41729068	2.92962635	-0.19498854	-0.41373406	0.54242697	-0.17969283	0.26712771	0.55801652	-0.92197158	-3.14699746	-1.52774897	0.14960300	-0.12500747	-0.06254074
935	9.34000000	0.53475254	0.08583728	-0.53180334	-0.00419825	0.12554844	-0.53444667	-0.16399499	-0.85609806	-2.00219281	-0.89533847	1.19787642	2.58307409	-0.31457044	-0.45933293	0.49769590	-0.38402593	-0.41705739	0.61867440	-0.98937268	-1.17735740	-0.85859362	0.08767316	-0.12586457	0.00673705
936	9.35000000	0.46726911	0.08818528	-0.58033552	0.05215834	0.26504906	-0.37931497	-0.85902107	-0.90224314	-1.37637098	-1.09546827	0.74510253	2.24702263	-0.14052696	-0.32273439	0.49012274	-0.11826930	-0.81382379	0.68299291	-0.24141790	-0.56825896	-0.41749463	0.00816041	-0.10502633	0.06375000
937	9.36000000	0.39404487	0.12028027	-0.61649660	0.04275627	0.30582257	-0.18555238	-1.69333096	-0.64385669	-0.23318509	-1.01507503	0.30385942	1.92161081	0.11949136	-0.26539750	0.48982653	0.33524581	-0.79812018	0.66144162	-0.28086806	-0.27574958	0.17901901	-0.02493657	-0.11338427	0.10731308
938	9.37000000	0.35579103	0.16846878	-0.63446690	-0.00413947	0.21792421	0.02041250	-1.52158052	-0.01108892	1.07430588	-0.83325032	0.21627395	1.88422926	0.44652535	-0.23477155	0.52622102	0.49534325	-0.71888444	0.59525857	-0.54053562	0.74726335	0.93336631	-0.05970059	-0.15435108	0.15747883
939	9.38000000	0.36213509	0.17131057	-0.62108390	-0.02258524	0.15086046	0.20542420	-0.66730397	0.28592684	1.92603376	-0.83008400	0.47335736	1.99911843	0.58250123	-0.23220666	0.57142706	0.45655009	-0.62477364	0.58225409	-0.50320115	1.45749537	1.38266481	-0.05752161	-0.18133185	0.17630488
940	9.39000000	0.39315575	0.16456740	-0.58570796	-0.05889284	0.14079223	0.35785412	-0.02165282	0.35399405	2.28756320	-1.04615702	0.85516576	1.92602614	0.52081939	-0.24183763	0.60704239	0.40693616	-0.55090323	0.62480771	-0.39092895	2.06162405	1.63581088	-0.04396226	-0.20526243	0.18366916
941	9.40000000	0.46185391	0.17069754	-0.54521228	-0.13401566	0.13932574	0.45298103	0.46692606	0.55725685	2.58916198	-1.10199723	1.15385679	1.80750911	0.44919408	-0.21657383	0.62081981	0.37432786	-0.55709882	0.65750100	-0.48780097	2.72329546	1.85268663	-0.04122922	-0.21720040	0.18298384
942	9.41000000	0.53399076	0.20041083	-0.49833901	-0.21322741	0.13085355	0.49030673	0.78835323	0.73966963	3.04274248	-0.90474399	1.26233088	1.73489998	0.34920466	-0.21140263	0.61042541	0.29889680	-0.61972876	0.67811319	-0.57669025	3.26643080	2.00071678	-0.03555120	-0.21707947	0.17650566
943	9.42000000	0.58878482	0.22307347	-0.44106541	-0.26748403	0.12395096	0.49203609	0.87860474	0.85300298	3.51520321	-0.50728276	1.11975115	1.63333093	0.27460610	-0.19126975	0.58660731	0.12950602	-0.69849486	0.71125157	-0.61196829	3.66042655	2.07284820	-0.02946385	-0.19605839	0.17749177
944	9.43000000	0.63660368	0.24388943	-0.37313493	-0.30595012	0.12659761	0.45704735	0.83022900	0.99603040	3.96824671	0.11535618	0.76394633	1.46510280	0.18100557	-0.16251464	0.58808743	-0.00333238	-0.69918081	0.75240474	-0.53009697	3.98210061	2.04060149	-0.02570757	-0.17515639	0.17264658
945	9.44000000	0.66623456	0.27323192	-0.29431845	-0.33288321	0.12780929	0.39673864	0.66405990	1.20752641	4.46300555	0.79198829	0.38296567	1.21973680	0.11663034	-0.18057416	0.62138846	0.06321623	-0.52795080	0.80526909	-0.40209063	4.29508356	1.93269872	-0.01608415	-0.16101449	0.17995953
946	9.45000000	0.64955400	0.29824514	-0.22050582	-0.32516308	0.14647119	0.34741134	0.48339087	1.41721295	4.89465736	1.35966158	0.15039640	0.96098073	0.15096072	-0.17610603	0.64557783	0.14027023	-0.41808479	0.79324415	-0.35757203	4.53370902	1.75383134	-0.00703947	-0.15018152	0.20171407
